<?xml version="1.0" encoding="iso-8859-1"?>
<!DOCTYPE svg PUBLIC "-//W3C//DTD SVG 1.1//EN" "http://www.w3.org/Graphics/SVG/1.1/DTD/svg11.dtd">
<svg 
 version="1.1" xmlns="http://www.w3.org/2000/svg" xmlns:xlink="http://www.w3.org/1999/xlink" x="0px" y="0px" width="512px"
	 height="512px" viewBox="0 0 512 512" enable-background="new 0 0 512 512" xml:space="preserve"
><g fill="#457ab1" id="b75708d097f2188dff6617b0f00e5166"><g></g><path display="inline" d="M256,0.5C114.893,0.5,0.5,114.891,0.5,256c0,141.107,114.393,255.5,255.5,255.5S511.5,397.107,511.5,256
		C511.5,114.891,397.107,0.5,256,0.5z M228.602,432.858c-84.566-9.977-150.183-81.856-150.183-169.106
		c0-37.768,12.336-72.617,33.158-100.834L91.75,143.092c-11.594-11.592-7.747-22.558,8.546-24.369l76.247-8.473
		c16.293-1.811,28.145,10.041,26.332,26.333l-8.467,76.249c-1.813,16.293-12.779,20.14-24.369,8.548l-18.611-18.612
		c-11.149,17.682-17.651,38.568-17.651,60.983c0,58.639,44.143,107.136,100.938,114.085L228.602,432.858z M413.001,376.655
		c11.594,11.595,7.747,22.561-8.546,24.369l-76.246,8.476c-16.293,1.813-28.146-10.039-26.332-26.332l8.467-76.251
		c1.813-16.293,12.779-20.14,24.369-8.55l18.613,18.613c11.149-17.682,17.648-38.57,17.648-60.98
		c0-59.105-44.837-107.916-102.278-114.258l6.112-55.019C360.025,96.088,426.333,168.286,426.333,256
		c0,37.764-12.334,72.612-33.155,100.832L413.001,376.655z"></path></g></svg>